<svg width="9" height="16" viewBox="0 0 9 16" fill="none" xmlns="http://www.w3.org/2000/svg">
<path d="M7.32702 3.63634V11.9999C7.32702 13.6072 6.02521 14.909 4.41795 14.909C2.81068 14.909 1.50887 13.6072 1.50887 11.9999V2.90908C1.50887 1.90544 2.32341 1.0909 3.32704 1.0909C4.33068 1.0909 5.14522 1.90544 5.14522 2.90908V10.5454C5.14522 10.9454 4.81795 11.2727 4.41795 11.2727C4.01795 11.2727 3.69068 10.9454 3.69068 10.5454V3.63634H2.59978V10.5454C2.59978 11.549 3.41432 12.3636 4.41795 12.3636C5.42158 12.3636 6.23612 11.549 6.23612 10.5454V2.90908C6.23612 1.30181 4.93431 0 3.32704 0C1.71978 0 0.417969 1.30181 0.417969 2.90908V11.9999C0.417969 14.2108 2.20705 15.9999 4.41795 15.9999C6.62885 15.9999 8.41793 14.2108 8.41793 11.9999V3.63634H7.32702Z" fill="#C2CFE0"/>
</svg>
