<svg width="16" height="16" viewBox="0 0 16 16" fill="none" xmlns="http://www.w3.org/2000/svg">
<path d="M4.81154 4.11106C4.81154 2.34904 6.23842 0.922168 8.00043 0.922168C9.76244 0.922168 11.1893 2.34904 11.1893 4.11106C11.1893 5.87307 9.76244 7.29995 8.00043 7.29995C6.23842 7.29995 4.81154 5.87307 4.81154 4.11106ZM0.922656 12.8611C0.922656 12.4716 1.11218 12.0787 1.54765 11.6768C1.98788 11.2705 2.63116 10.904 3.39842 10.5966C4.93407 9.98144 6.79002 9.67217 8.00043 9.67217C9.21084 9.67217 11.0668 9.98144 12.6024 10.5966C13.3697 10.904 14.013 11.2705 14.4532 11.6768C14.8887 12.0787 15.0782 12.4716 15.0782 12.8611V15.0777H0.922656V12.8611Z" stroke="#C2CFE0" stroke-width="1.4"/>
</svg>
