<svg width="24" height="24" viewBox="0 0 24 24" fill="none" xmlns="http://www.w3.org/2000/svg">
<path d="M16 12H20C20 14.2133 21.7867 16 24 16V20C19.5867 20 16 16.4133 16 12Z" fill="#109CF1"/>
<path d="M12 16V20C14.2133 20 16 21.7867 16 24H20C20 19.5733 16.4133 16 12 16Z" fill="#109CF1"/>
<path d="M24 3.99998V7.99999C21.7867 7.99999 20 9.78666 20 12H16C16 7.57332 19.5867 3.99998 24 3.99998Z" fill="#109CF1"/>
<path d="M4 -1.71661e-05H8.00001C8.00001 2.21332 9.78668 3.99999 12 3.99999V8C7.58667 8 4 4.41333 4 -1.71661e-05Z" fill="#109CF1"/>
<path d="M20 -1.71661e-05H16C16 2.21332 14.2133 3.99999 12 3.99999V8C16.4133 8 20 4.41333 20 -1.71661e-05Z" fill="#109CF1"/>
<path d="M8.00002 12H4.00001C4.00001 9.78666 2.21334 7.99999 0 7.99999V3.99998C4.41334 3.99998 8.00002 7.57332 8.00002 12Z" fill="#109CF1"/>
<path d="M12 16V20C9.78668 20 8.00001 21.7867 8.00001 24H4C4 19.5733 7.58667 16 12 16Z" fill="#109CF1"/>
<path d="M8.00002 12H4.00001C4.00001 14.2133 2.21334 16 0 16V20C4.41334 20 8.00002 16.4133 8.00002 12Z" fill="#109CF1"/>
</svg>
