<svg width="16" height="16" viewBox="0 0 16 16" fill="none" xmlns="http://www.w3.org/2000/svg">
<rect width="16" height="16" rx="8" fill="#109CF1"/>
<circle cx="7.99974" cy="7.99998" r="6.93333" fill="white"/>
<path d="M7.12354 3.84033H8.75488L8.62793 9.97852H7.25049L7.12354 3.84033ZM8.58984 12.8667C8.41211 13.0402 8.19417 13.127 7.93604 13.127C7.6779 13.127 7.45996 13.0402 7.28223 12.8667C7.10449 12.689 7.01562 12.4753 7.01562 12.2256C7.01562 11.9759 7.10449 11.7643 7.28223 11.5908C7.45996 11.4173 7.6779 11.3306 7.93604 11.3306C8.19417 11.3306 8.41211 11.4173 8.58984 11.5908C8.77181 11.7643 8.86279 11.9759 8.86279 12.2256C8.86279 12.4753 8.77181 12.689 8.58984 12.8667Z" fill="#109CF1"/>
</svg>
