<svg width="14" height="4" viewBox="0 0 14 4" fill="none" xmlns="http://www.w3.org/2000/svg">
<path d="M2.00065 0.333496C1.08398 0.333496 0.333984 1.0835 0.333984 2.00016C0.333984 2.91683 1.08398 3.66683 2.00065 3.66683C2.91732 3.66683 3.66732 2.91683 3.66732 2.00016C3.66732 1.0835 2.91732 0.333496 2.00065 0.333496ZM12.0007 0.333496C11.084 0.333496 10.334 1.0835 10.334 2.00016C10.334 2.91683 11.084 3.66683 12.0007 3.66683C12.9173 3.66683 13.6673 2.91683 13.6673 2.00016C13.6673 1.0835 12.9173 0.333496 12.0007 0.333496ZM7.00065 0.333496C6.08398 0.333496 5.33398 1.0835 5.33398 2.00016C5.33398 2.91683 6.08398 3.66683 7.00065 3.66683C7.91732 3.66683 8.66732 2.91683 8.66732 2.00016C8.66732 1.0835 7.91732 0.333496 7.00065 0.333496Z" fill="#C2CFE0"/>
</svg>
