<svg width="17" height="16" viewBox="0 0 17 16" fill="none" xmlns="http://www.w3.org/2000/svg">
<path d="M1.49935 1.2H15.666C15.7377 1.2 15.7993 1.2616 15.7993 1.33333V6.33333C15.7993 6.40507 15.7377 6.46667 15.666 6.46667H1.49935C1.42762 6.46667 1.36602 6.40507 1.36602 6.33333V1.33333C1.36602 1.2616 1.42761 1.2 1.49935 1.2ZM1.49935 9.53333H15.666C15.7377 9.53333 15.7993 9.59493 15.7993 9.66667V14.6667C15.7993 14.7384 15.7377 14.8 15.666 14.8H1.49935C1.42762 14.8 1.36602 14.7384 1.36602 14.6667V9.66667C1.36602 9.59493 1.42761 9.53333 1.49935 9.53333Z" stroke="#C2CFE0" stroke-width="1.4"/>
</svg>
