<svg width="72" height="72" viewBox="0 0 72 72" fill="none" xmlns="http://www.w3.org/2000/svg">
<path d="M69.6462 36.1459C69.6462 54.6079 54.6797 69.5744 36.2176 69.5744C17.7555 69.5744 2.78906 54.6079 2.78906 36.1459C2.78906 17.6838 17.7555 2.71729 36.2176 2.71729C54.6797 2.71729 69.6462 17.6838 69.6462 36.1459ZM4.46049 36.1459C4.46049 53.6848 18.6786 67.903 36.2176 67.903C53.7566 67.903 67.9748 53.6848 67.9748 36.1459C67.9748 18.6069 53.7566 4.38871 36.2176 4.38871C18.6786 4.38871 4.46049 18.6069 4.46049 36.1459Z" fill="#C2CFE0"/>
<path d="M36 3.6C36 1.61178 37.6158 -0.0186464 39.5941 0.179848C44.2645 0.64846 48.8103 2.02726 52.9703 4.25083C58.1915 7.04161 62.6438 11.077 65.9329 15.9995C69.222 20.922 71.2464 26.5797 71.8267 32.4714C72.4069 38.3631 71.5252 44.307 69.2597 49.7766C66.9941 55.2462 63.4146 60.0726 58.8382 63.8284C54.2618 67.5841 48.8297 70.1533 43.0233 71.3083C37.2168 72.4632 31.2151 72.1684 25.5498 70.4499C21.0359 69.0806 16.8466 66.8412 13.2127 63.8701C11.6735 62.6116 11.6839 60.3162 13.0897 58.9103C14.4956 57.5044 16.763 57.5252 18.3332 58.7448C21.1069 60.8992 24.2596 62.5345 27.6398 63.5599C32.1721 64.9347 36.9734 65.1706 41.6186 64.2466C46.2638 63.3226 50.6094 61.2673 54.2705 58.2627C57.9317 55.2581 60.7953 51.3969 62.6077 47.0213C64.4202 42.6456 65.1255 37.8905 64.6613 33.1771C64.1971 28.4637 62.5776 23.9376 59.9463 19.9996C57.315 16.0616 53.7532 12.8333 49.5762 10.6007C46.461 8.93555 43.0754 7.86259 39.5907 7.42471C37.618 7.17682 36 5.58822 36 3.6Z" fill="#2ED47A"/>
</svg>
